<svg xmlns="http://www.w3.org/2000/svg" viewBox="0 0 64 64" width="64" height="64">
  <!-- Background -->
  <rect x="8" y="4" width="48" height="56" rx="4" fill="#F39C12"/>

  <!-- Paper fold -->
  <path d="M 56 4 L 56 16 L 44 16 L 56 4" fill="#D68910"/>

  <!-- JSON curly braces -->
  <path d="M 20 24 Q 18 24 18 26 L 18 32 Q 18 34 16 34 Q 18 34 18 36 L 18 42 Q 18 44 20 44"
        stroke="white" stroke-width="2" fill="none" stroke-linecap="round"/>
  <path d="M 44 24 Q 46 24 46 26 L 46 32 Q 46 34 48 34 Q 46 34 46 36 L 46 42 Q 46 44 44 44"
        stroke="white" stroke-width="2" fill="none" stroke-linecap="round"/>

  <!-- JSON Text -->
  <text x="32" y="52" font-family="monospace" font-size="11" font-weight="bold" fill="white" text-anchor="middle">JSON</text>
</svg>
